<svg width="163" height="131" viewBox="0 0 163 131" fill="none" xmlns="http://www.w3.org/2000/svg">
<path d="M109.718 35.8475C98.1715 35.8475 86.4594 35.3924 75.4785 32.3311C64.4976 29.2699 54.8686 23.5472 45.9983 16.8454C40.2319 12.4741 34.9622 9.01295 27.4853 9.53696C20.1562 9.92344 13.1468 12.6603 7.49611 17.3419C-2.03632 25.6156 -0.587831 41.1013 3.21962 51.9537C8.9446 68.2944 26.3816 79.6432 41.2528 87.0482C58.3725 95.5977 77.1201 100.562 96.0332 103.416C112.587 105.926 133.791 107.746 148.11 96.9629C161.27 87.0482 164.885 64.4195 161.657 49.1269C160.84 44.627 158.413 40.5781 154.828 37.7367C145.599 30.9935 131.804 35.5027 121.43 35.7234C117.567 35.7372 113.65 35.8337 109.718 35.8475Z" fill="#F2F2F2"/>
<path d="M81.2867 130.183C109.21 130.183 131.846 128.775 131.846 127.039C131.846 125.302 109.21 123.895 81.2867 123.895C53.3636 123.895 30.7275 125.302 30.7275 127.039C30.7275 128.775 53.3636 130.183 81.2867 130.183Z" fill="#F2F2F2"/>
<path d="M99.7316 98.1913L75.1901 83.464C74.3555 82.9674 73.4023 82.7053 72.4311 82.7053C71.4598 82.7053 70.5066 82.9674 69.6721 83.464L45.6961 98.081C44.8805 98.578 43.9471 98.849 42.992 98.8661C42.0368 98.8832 41.0944 98.6457 40.2615 98.1782C39.4285 97.7106 38.7351 97.0298 38.2526 96.2057C37.77 95.3816 37.5156 94.4439 37.5156 93.4891V5.64942C37.5156 4.2231 38.0825 2.8552 39.0914 1.84664C40.1004 0.838083 41.4688 0.271484 42.8957 0.271484H102.56C103.985 0.275125 105.352 0.842895 106.36 1.85067C107.368 2.85844 107.936 4.22422 107.94 5.64942V93.5718C107.948 94.5332 107.698 95.4792 107.216 96.3112C106.734 97.1432 106.037 97.8309 105.199 98.3026C104.361 98.7743 103.412 99.0128 102.45 98.9932C101.489 98.9736 100.55 98.6967 99.7316 98.1913Z" fill="#D2D2D2"/>
<path d="M111.202 108.919L85.5844 93.544C84.7062 93.0136 83.6997 92.7333 82.6737 92.7333C81.6476 92.7333 80.6411 93.0136 79.7629 93.544L54.7385 108.823C53.8857 109.341 52.9103 109.624 51.9122 109.641C50.9142 109.659 49.9295 109.41 49.0591 108.922C48.1886 108.434 47.4638 107.723 46.9588 106.862C46.4539 106.001 46.187 105.022 46.1855 104.024V12.3096C46.1892 10.8199 46.7838 9.39237 47.8389 8.34024C48.8941 7.28812 50.3236 6.69726 51.814 6.69727H114.099C115.588 6.69727 117.016 7.28856 118.069 8.34109C119.122 9.39361 119.714 10.8211 119.714 12.3096V104.107C119.714 105.101 119.451 106.078 118.95 106.937C118.449 107.797 117.729 108.507 116.863 108.997C115.997 109.486 115.017 109.737 114.022 109.724C113.027 109.71 112.054 109.433 111.202 108.919Z" fill="white" stroke="#BABABA" stroke-linecap="round" stroke-linejoin="round"/>
<path d="M82.9494 70.8604C97.2042 70.8604 108.76 59.3092 108.76 45.0601C108.76 30.811 97.2042 19.2598 82.9494 19.2598C68.6945 19.2598 57.1387 30.811 57.1387 45.0601C57.1387 59.3092 68.6945 70.8604 82.9494 70.8604Z" fill="#D2D2D2"/>
<path d="M84.2744 26.8706L89.0199 36.5233L99.6146 38.0677C99.8854 38.1089 100.139 38.2246 100.348 38.4019C100.557 38.5791 100.712 38.811 100.797 39.0714C100.881 39.3319 100.891 39.6107 100.826 39.8767C100.761 40.1426 100.624 40.3853 100.429 40.5774L92.7584 48.0514L94.5656 58.6004C94.6123 58.8715 94.5823 59.1503 94.4789 59.4052C94.3755 59.6602 94.2029 59.8812 93.9805 60.0432C93.7581 60.2053 93.4948 60.302 93.2204 60.3224C92.9459 60.3428 92.6712 60.2861 92.4273 60.1587L82.9501 55.1117L73.4728 60.1035C73.2289 60.2309 72.9542 60.2876 72.6798 60.2672C72.4053 60.2468 72.1421 60.1501 71.9197 59.9881C71.6973 59.826 71.5247 59.605 71.4213 59.3501C71.3179 59.0951 71.2879 58.8164 71.3346 58.5453L73.1555 47.9962L65.4854 40.4947C65.2851 40.3048 65.1426 40.0621 65.0745 39.7946C65.0064 39.5271 65.0154 39.2458 65.1006 38.9833C65.1857 38.7207 65.3435 38.4876 65.5556 38.311C65.7678 38.1343 66.0256 38.0213 66.2994 37.985L76.894 36.4406L81.6395 26.7879C81.7702 26.5479 81.9649 26.3489 82.202 26.213C82.4391 26.0771 82.7093 26.0097 82.9825 26.0183C83.2556 26.0269 83.5211 26.1111 83.7492 26.2616C83.9773 26.4121 84.1591 26.6229 84.2744 26.8706Z" fill="white" stroke="#BABABA" stroke-linecap="round" stroke-linejoin="round"/>
</svg>
