<svg width="20" height="20" viewBox="0 0 20 20" fill="none" xmlns="http://www.w3.org/2000/svg">
<path d="M5.10109 6.04301C2.7118 6.04301 0.767578 7.98715 0.767578 10.3764C0.767578 12.7657 2.7118 14.7112 5.10109 14.7112C7.17781 14.7112 8.9193 13.2418 9.33937 11.2883C9.57559 10.9767 10.0885 10.9501 10.3428 11.2786C10.7589 13.237 12.5021 14.7112 14.5823 14.7112C16.9716 14.7112 18.917 12.7657 18.917 10.3764C18.917 7.98719 16.9716 6.04297 14.5824 6.04297C12.6356 6.04297 10.9842 7.33398 10.4393 9.10445C10.2509 9.01684 10.0446 8.97348 9.83871 8.97504C9.63512 8.9766 9.4318 9.02121 9.24668 9.10813C8.70254 7.33574 7.04922 6.04297 5.10113 6.04297L5.10109 6.04301ZM5.10109 6.77293C7.09582 6.77293 8.70578 8.38172 8.70578 10.3764C8.70578 11.1124 8.48687 11.7953 8.11008 12.365C6.80602 10.8948 3.5025 10.6743 2.20445 12.5237C1.76023 11.9243 1.49766 11.182 1.49766 10.3764C1.49766 9.86289 1.6043 9.37512 1.79672 8.93359C2.035 9.18086 2.44766 9.34492 2.91734 9.34492C3.65543 9.34492 4.25398 8.94102 4.25398 8.44281C4.25398 7.94469 3.65543 7.5407 2.91727 7.5407C2.90203 7.5407 2.88727 7.5416 2.87215 7.54195C3.48496 7.05984 4.25848 6.77289 5.10121 6.77289L5.10109 6.77293ZM14.5823 6.77293C16.577 6.77293 18.187 8.38172 18.187 10.3764C18.187 11.1124 17.9681 11.7953 17.5913 12.365C16.2869 10.8952 12.9835 10.6743 11.6855 12.5237C11.2413 11.9243 10.9788 11.182 10.9788 10.3764C10.9788 9.86289 11.0854 9.37512 11.2779 8.93359C11.5161 9.18086 11.9288 9.34492 12.3984 9.34492C13.1365 9.34492 13.7351 8.94102 13.7351 8.44281C13.7351 7.94469 13.1365 7.5407 12.3984 7.5407C12.3832 7.5407 12.3683 7.5416 12.3532 7.54195C12.966 7.05984 13.7395 6.77289 14.5823 6.77289L14.5823 6.77293ZM9.83742 9.69773C9.9968 9.69461 10.157 9.74852 10.2793 9.86375C10.2594 10.0322 10.2488 10.2028 10.2488 10.3765V10.3777C10.1156 10.3387 9.97745 10.3194 9.83867 10.3204C9.70242 10.3213 9.56641 10.3432 9.43578 10.3825V10.3764C9.43578 10.2049 9.42484 10.0363 9.40531 9.86981C9.52195 9.76035 9.67922 9.70086 9.83742 9.69773Z" fill="black"/>
</svg>
