<svg width="711" height="703" viewBox="0 0 711 703" fill="none" xmlns="http://www.w3.org/2000/svg">
<rect width="711" height="703" fill="#D45339"/>
<path d="M270.073 190.203C240.473 192.801 214.185 208.008 196.18 232.964C185.593 247.606 179.111 264.319 176.482 283.554C175.762 289.049 175.87 305.536 176.662 311.032C179.255 328.347 184.405 342.538 193.155 356.126C195.1 359.175 198.125 363.429 199.853 365.574C203.454 369.978 350.413 519.301 352.105 520.242C353.798 521.183 356.895 521.033 358.623 519.941C359.848 519.188 398.991 479.552 502.305 374.683C505.474 371.446 509.291 367.268 510.804 365.386C522.651 350.405 529.997 333.654 533.31 314.118C534.246 308.548 534.318 307.569 534.318 296.916C534.318 284.833 534.066 282.236 532.122 273.014C525.856 243.767 507.166 217.983 481.419 203.039C470.4 196.678 456.536 192.085 443.572 190.504C437.846 189.827 425.531 189.94 419.805 190.73C399.963 193.516 384.155 202.173 360.136 223.441C357.291 225.962 355.922 226.565 354.122 226.151C353.582 226.038 350.701 223.817 347.748 221.22C322.253 198.785 304.644 190.655 280.408 190.053C276.879 189.94 272.198 190.015 270.073 190.203ZM284.658 226.753C296.325 228.07 306.156 233.152 320.776 245.348C326.574 250.166 327.726 251.37 328.158 252.989C328.879 255.473 328.194 256.527 320.38 265.072C312.278 273.88 309.145 278.359 304.968 286.941C298.306 300.605 295.353 313.29 295.353 328.159C295.353 342.011 297.802 353.04 303.635 365.424C308.173 374.984 313.718 382.927 321.929 391.509C324.557 394.257 326.862 396.816 327.078 397.23C327.726 398.473 327.51 400.806 326.646 402.086C325.638 403.592 309.649 419.288 308.173 420.267C306.804 421.133 305.256 421.133 303.779 420.267C303.167 419.928 287.286 404.044 268.489 384.997C249.728 365.951 233.055 349.087 231.506 347.544C220.235 336.252 213.069 321.12 211.088 304.482C210.44 298.798 210.872 288.635 211.989 282.951C218.543 250.279 245.658 226.828 277.456 226.377C279.4 226.377 282.641 226.527 284.658 226.753ZM438.999 226.753C460.677 229.2 479.546 241.885 490.458 261.27C500.324 278.811 502.413 299.476 496.291 318.748C493.843 326.465 490.638 332.826 485.848 339.526C482.247 344.495 408.102 419.74 405.977 420.568C403.42 421.509 402.592 420.944 392.905 411.384C388.08 406.641 383.867 402.237 383.542 401.597C382.822 400.242 382.714 398.661 383.29 397.494C383.542 397.042 385.991 394.219 388.8 391.208C394.742 384.846 397.731 381.045 401.656 374.834C408.21 364.595 412.603 352.701 414.439 340.279C415.232 335.085 415.34 322.663 414.62 317.431C412.675 302.675 408.102 289.953 400.287 277.606C398.271 274.407 395.894 271.471 391.285 266.389C387.828 262.587 384.839 259.388 384.659 259.237C383.579 258.56 382.174 255.887 382.174 254.495C382.174 252.274 382.966 251.069 386.495 248.02C397.731 238.234 408.03 231.533 416.024 228.861C418.509 227.995 423.838 226.904 426.827 226.602C429.708 226.301 435.722 226.377 438.999 226.753ZM357.075 282.575C357.759 282.876 360.856 285.925 364.529 290.028C372.307 298.573 375.008 303.09 377.853 312.123C384.083 332.149 378.609 351.233 361.9 367.644C355.778 373.667 354.914 373.742 349.513 368.623C341.662 361.208 336.225 353.303 333.056 344.683C329.347 334.633 329.203 322.738 332.696 311.785C333.884 308.096 336.405 302.525 338.493 299.024C340.366 295.9 351.205 283.78 353.114 282.688C354.482 281.897 355.526 281.86 357.075 282.575ZM358.227 427.532C360.28 429.188 376.232 445.11 376.664 445.901C376.917 446.352 377.133 447.557 377.133 448.611L377.169 450.493L367.518 460.393C360.28 467.808 357.543 470.367 356.571 470.706C354.014 471.497 353.222 470.894 343.355 460.882C338.313 455.8 333.992 451.17 333.704 450.606C333.056 449.288 333.056 447.519 333.74 446.202C334.46 444.696 351.961 427.456 353.438 426.779C354.95 426.064 356.787 426.365 358.227 427.532Z" fill="white"/>
</svg>
